<svg viewBox="0 0 24 24" xmlns="http://www.w3.org/2000/svg"><path fill="#4285F4" d="M18.316 5.684H24v12.632h-5.684z"/><path fill="#EA4335" d="M5.684 18.316v5.684H18.316l2.842-5.684z"/><path fill="#34A853" d="M0 18.316l2.842 5.684h2.842v-5.684z"/><path fill="#FBBC04" d="M24 5.684L18.316 0H5.684v5.684z"/><path fill="#4285F4" d="M0 5.684h5.684V18.316H0z"/><path fill="#1967D2" d="M18.316 5.684v12.632H24V5.684z"/><path fill="#185ABC" d="M5.684 18.316H18.316V24H5.684z"/><path fill="#fff" d="M5.684 5.684H18.316V18.316H5.684z"/><path fill="#1967D2" d="M8.526 15.158V10.42l-1.263.947-.631-.947 2.21-1.578h1.263v6.316z"/><path fill="#1967D2" d="M12.947 15.158c-.842 0-1.474-.21-1.894-.631-.42-.42-.631-.947-.631-1.578h1.263c0 .315.105.526.316.736.21.21.526.316.947.316.42 0 .736-.105.947-.316.21-.21.315-.526.315-.947 0-.42-.105-.736-.315-.947-.21-.21-.526-.315-.947-.315h-.631v-1.263h.631c.315 0 .631-.105.842-.315.21-.21.315-.526.315-.842 0-.315-.105-.526-.315-.736-.21-.21-.526-.316-.842-.316-.315 0-.631.105-.842.316-.21.21-.315.42-.315.736H10.42c0-.631.21-1.158.631-1.578.42-.42 1.053-.631 1.894-.631.842 0 1.473.21 1.894.631.42.42.631.947.631 1.578 0 .42-.105.736-.315 1.053-.21.315-.526.526-.842.631.42.105.736.315.947.631.21.315.315.736.315 1.158 0 .631-.21 1.158-.631 1.578-.42.42-1.052.631-1.997.631z"/></svg>
