<svg viewBox="0 0 24 24" xmlns="http://www.w3.org/2000/svg"><path fill="#0082FB" d="M6.915 4.03c-1.968 0-3.683 1.28-4.871 3.113C.704 9.208 0 11.883 0 14.449c0 .706.07 1.369.21 1.973.14.604.375 1.153.712 1.61.337.457.78.812 1.33 1.067.55.255 1.2.383 1.95.383.95 0 1.874-.235 2.77-.706.896-.47 1.77-1.14 2.62-2.012 1.02 1.44 2.26 2.18 3.72 2.18 1.46 0 2.7-.74 3.72-2.18.85.872 1.724 1.542 2.62 2.012.896.47 1.82.706 2.77.706.75 0 1.4-.128 1.95-.383.55-.255.993-.61 1.33-1.067.337-.457.572-1.006.712-1.61.14-.604.21-1.267.21-1.973 0-2.566-.704-5.241-2.044-7.306C20.768 5.31 19.053 4.03 17.085 4.03c-.8 0-1.536.214-2.207.643-.671.43-1.28 1.047-1.826 1.852-.546-.805-1.155-1.422-1.826-1.852C10.555 4.244 9.82 4.03 9.02 4.03H6.915zm0 1.8h2.105c.52 0 1.01.145 1.47.434.46.29.896.724 1.306 1.302.41.578.79 1.29 1.14 2.135.35.845.668 1.8.955 2.865-.287 1.065-.605 2.02-.955 2.865-.35.845-.73 1.557-1.14 2.135-.41.578-.846 1.012-1.306 1.302-.46.29-.95.434-1.47.434H6.915c-.52 0-.99-.1-1.41-.3-.42-.2-.77-.49-1.05-.87-.28-.38-.49-.84-.63-1.38-.14-.54-.21-1.14-.21-1.8 0-2.28.6-4.64 1.8-6.42.6-.89 1.27-1.57 2.01-2.04.74-.47 1.52-.7 2.34-.7h.15zm10.17 0h2.105c.82 0 1.6.23 2.34.7.74.47 1.41 1.15 2.01 2.04 1.2 1.78 1.8 4.14 1.8 6.42 0 .66-.07 1.26-.21 1.8-.14.54-.35 1-.63 1.38-.28.38-.63.67-1.05.87-.42.2-.89.3-1.41.3h-2.105c-.52 0-1.01-.144-1.47-.434-.46-.29-.896-.724-1.306-1.302-.41-.578-.79-1.29-1.14-2.135-.35-.845-.668-1.8-.955-2.865.287-1.065.605-2.02.955-2.865.35-.845.73-1.557 1.14-2.135.41-.578.846-1.012 1.306-1.302.46-.29.95-.434 1.47-.434z"/></svg>
